<svg id="Layer_1" data-name="Layer 1" xmlns="http://www.w3.org/2000/svg" viewBox="0 0 780.76 360.75"><defs><style>.cls-1{fill:#fff;}.cls-2,.cls-3{fill:none;stroke:#fff;stroke-miterlimit:10;stroke-width:8px;}.cls-2{stroke-linecap:round;}.cls-4{isolation:isolate;}</style></defs><title>Heatherworks_White</title><g id="Layer_2" data-name="Layer 2"><path class="cls-1" d="M116.7,458s5.1,4.2,4.4,6-34.8,17.6-40.3,14.5S116.7,458,116.7,458Z" transform="translate(0 -123.09)"/><path class="cls-1" d="M225,457s-32.1,10.6-32.9,13.1,1.2,10.6,4.8,9.7S224.8,464,225,457Z" transform="translate(0 -123.09)"/><path class="cls-1" d="M24.4,305c-2.5,3.1-2.5-14.9,2.3-15.4,3.3-.4,11,2.2,15.6,3.9,2.1.8,4.3.1,3.3,3l.7,3.6c-.5,2.3-3.9,3.8-6.3,3.6C34.7,303.3,26.1,302.9,24.4,305Z" transform="translate(0 -123.09)"/><path class="cls-1" d="M185.5,339.6c1.2,3.6,9.7-11,5.7-12.8-3.2-1.5-15.2-2.3-19.4-2.5a1.65,1.65,0,0,0-1.7,1.4l-.9,6.2a1.77,1.77,0,0,0,1.3,1.9C174.4,334.5,184.6,336.6,185.5,339.6Z" transform="translate(0 -123.09)"/><path class="cls-2" d="M116.6,456s7.9,7.5-1.8,12.3c-2,1-29,10.6-34.1,9.5s25.8-13.1,35.9-20.5a.78.78,0,0,0,.2-1c0-.2-.1-.3-.2-.3-7.3-4.6-25-25.2-35.2-34.7a.67.67,0,0,1,0-1c.1-.1.2-.1.3-.2,13.9-5.7,34.5-13.6,40.3-13s30.5,15,38.7,24.2c8.4,9.4,25.1,33.6,29.4,42.2.2.4,25.9-14.4,35-18.2,2.3-.9-12,14.9-25.3,23.7-4.9,3.3-9.5-4-10.9-6.8" transform="translate(0 -123.09)"/><path class="cls-2" d="M121.9,407s-1.1-51.2-13-87c-4.3,2.8-16.8,13.2-26,16-8.9-6.6-21.3-24.4-35-32-9-5-34.3-.4-40.9,3.7" transform="translate(0 -123.09)"/><path class="cls-2" d="M108.9,312v8s19.3,25.2,29,24,16,1.4,33-10c8.2-.9,28.8,11.1,32,13" transform="translate(0 -123.09)"/><path class="cls-3" d="M120.4,235a39.35,39.35,0,1,1-39.5,39.5A39.39,39.39,0,0,1,120.4,235Z" transform="translate(0 -123.09)"/><path class="cls-2" d="M4,291.5c2.3.6,20.5,4.1,28.5,8.4,1.6.9,5.3-.8,4.1-2.1-6.8-8.1-19.7-16.5-23.8-18.6" transform="translate(0 -123.09)"/><path class="cls-2" d="M46.9,304" transform="translate(0 -123.09)"/><path class="cls-2" d="M48.7,284.7s-2.2-.2-6.8,9.9" transform="translate(0 -123.09)"/><path class="cls-2" d="M210.4,335.3c-9.6-5.8-34.9-2-34.9-2s25.4-15.8,32.4-14.2" transform="translate(0 -123.09)"/><path class="cls-2" d="M168.8,314s5,3.1,5.1,11" transform="translate(0 -123.09)"/><g class="cls-4"><path class="cls-1" d="M246.79,282.58q3.47-1.14,11.85-3.17l17.91-4.34c6.36-1.53,12.81-2.89,19.36-4s12.14-1.93,16.76-2.32q1.15-2.88,5.2-13.58T327.41,230q5.47-14.44,12.13-30.92t13.29-30.63q6.65-14.16,12.43-24.27t9.82-12.43q0,12.72-10.4,45.66-2.31,7.51-4.62,15.31a151.25,151.25,0,0,1-5.2,14.74Q352.54,215,347.63,230t-13,37q23.69,0,32.36,2t12.72,5.49a40.36,40.36,0,0,0-7.52-.57H349.08q-6.93,0-16.18.57A161.48,161.48,0,0,0,326,293.85a74.93,74.93,0,0,1-4.62,13h12.14a46.9,46.9,0,0,0,8.66-.86q4.62-.87,13.3-2t23.69-2.31q15-1.14,41-2.31a522.3,522.3,0,0,1,28-86.68q17.61-41.61,44.2-89.57v3.46c0,1.55-.1,3.28-.28,5.2s-.49,4.05-.87,6.36q-.58,4-3.76,15.89t-7.8,27.45Q475,197.05,469.57,215t-10.69,34.38q-5.2,16.47-9,29.48T445,298.19q12.71-1.15,18.2-2T473,295q4.32-.28,11-.58t22.24-.29q7.51,0,15.32.29a78.91,78.91,0,0,1,14.16,1.73,47.73,47.73,0,0,1,10.4,3.47c2.69,1.36,4,3.18,4,5.49a12.61,12.61,0,0,1-4-.58c-1.16-.38-2.41-.76-3.76-1.15a54.78,54.78,0,0,0-5.49-1.16,64.22,64.22,0,0,0-9.82-.58q-8.67,0-31.79,2.6t-53.16,7.23l-2.89,17.91q-1.17,4-3.18,20.23a290.12,290.12,0,0,0-2,35.83A215.35,215.35,0,0,0,435.18,408a73.49,73.49,0,0,0,4.63,19.64,39.32,39.32,0,0,0,9.24,14.16,20.15,20.15,0,0,0,14.45,5.49q9.83,0,15.89-5.49a35.93,35.93,0,0,0,9.25-13.29,58.4,58.4,0,0,0,4-15.89,126.15,126.15,0,0,0,.87-12.72,109.4,109.4,0,0,0-1.44-15.31A94.43,94.43,0,0,0,487.77,367q4,4.05,8.09,15a71.68,71.68,0,0,1,4.05,24.85q0,2.9-.87,11.56a68.61,68.61,0,0,1-4.62,18.2,46.41,46.41,0,0,1-11.85,17.05q-8.1,7.5-22.54,7.51A53.32,53.32,0,0,1,442.7,458a42,42,0,0,1-17.05-11.55q-7.8-8.39-13-23.12T407.45,386q0-8.1.86-17.34t2-19.07L416.11,315c-1.93,0-6.35.38-13.29,1.15s-14.93,1.64-24,2.6-18.3,2-27.74,3.18-17.62,2.12-24.56,2.89h-11a156.08,156.08,0,0,0-8.09,26.58Q304,367,301.4,382.85t-3.75,30.63q-1.17,14.73-1.16,24.56,0,22.53,4.91,31.49T312.09,482a34.33,34.33,0,0,1-11.27-3.18,25.32,25.32,0,0,1-9.82-9q-4.33-6.36-7.22-16.76t-2.89-27.16a327,327,0,0,1,2-37.27q2-17.62,4.62-31.21A195.3,195.3,0,0,1,293,334.88q2.89-9,4.63-11.84-5.79-.57-14.45-1.16a65,65,0,0,1-17.05-3.47,35.74,35.74,0,0,1-14.45-9.24q-6.06-6.36-6.06-18.5A48.81,48.81,0,0,1,246.79,282.58Zm63-5.2a97.76,97.76,0,0,0-21.67,2.89q-12.44,2.89-29.18,12.14a67.53,67.53,0,0,0,7.8,6.07,27.67,27.67,0,0,0,6.93,3.17A86.58,86.58,0,0,0,283.78,304q6.35,1.17,17.91,3.47a179.36,179.36,0,0,0,5.78-19.36C308.63,282.87,309.39,279.31,309.78,277.38Z" transform="translate(0 -123.09)"/><path class="cls-1" d="M673.85,228.84c1.53,0,3.37.1,5.49.29s4.52.49,7.22.87q-1.15,2.9-4.91,15t-9,28.61q-5.19,16.47-11.27,35.25t-11,35.54q-4.91,16.77-8.38,28.6t-4,14.74a88.23,88.23,0,0,0-2.31,21.38q0,22.55,7.51,35.25t19.65,12.72q11,0,21.38-14.45t20.8-39.3a537.53,537.53,0,0,0,22.54-65q10.41-36.69,19.07-75.42,8.08-36.41,14.74-69.34t10.69-59.52a154.41,154.41,0,0,1,6.36,20.22q2.29,9.84,2.31,25.43a333.9,333.9,0,0,1-2.31,35.83q-2.33,20.8-7.52,52.59-2.31,15.6-6.64,34.38t-10.4,38.72q-6.07,19.93-13.3,39.58t-15.31,37q-12.13,22.53-25.43,37.27T671,469.82q-23.13,0-34.67-18.78t-11.56-46.52a70.2,70.2,0,0,1,1.73-14.45q-4.05,7.51-9,15.31a99.78,99.78,0,0,1-10.69,14.16,77.24,77.24,0,0,1-15.89,14.16,31.69,31.69,0,0,1-17.63,5.49q-11.56,0-19.35-4.91a40.85,40.85,0,0,1-13-13.29,59.87,59.87,0,0,1-7.51-19.07,108,108,0,0,1-2.31-22.83q0-22,7.51-50.85a429.06,429.06,0,0,1,20.81-60.1A397.09,397.09,0,0,1,596.7,198.5q22.24-33.23,48.25-53.45-16.19,34.66-32.94,67a657.63,657.63,0,0,0-30,67q-9.83,26-18.78,54a182.42,182.42,0,0,0-9,55.77,90.87,90.87,0,0,0,4,27.73q4,12.72,9.82,12.72,16.18,0,38.15-41.61,13.28-24.84,28.6-64.44t32.65-93.9a12.82,12.82,0,0,0,2.6-.29A20,20,0,0,1,673.85,228.84Z" transform="translate(0 -123.09)"/></g></g></svg>