<?xml version="1.0" encoding="utf-8"?>
<!-- Generator: Adobe Illustrator 22.1.0, SVG Export Plug-In . SVG Version: 6.00 Build 0)  -->
<svg version="1.1" id="Layer_1" xmlns="http://www.w3.org/2000/svg" xmlns:xlink="http://www.w3.org/1999/xlink" x="0px" y="0px"
	 viewBox="0 0 24 24" style="enable-background:new 0 0 24 24;" xml:space="preserve">
<style type="text/css">
	.st0{fill:none;stroke:#FFFFFF;stroke-width:2;stroke-miterlimit:10;}
</style>
<g id="XMLID_828_">
	<path id="XMLID_829_" class="st0" d="M18.1,17.3c-0.1-0.1-0.2-0.1-0.3,0c-0.9,0.6-1.8,0.9-2.7,0.9c-0.5,0-0.9-0.1-1.3-0.3
		c-0.3-0.2-0.4-0.3-0.5-0.6c-0.1-0.2-0.2-0.7-0.2-2v-4.6h4.3c0.2,0,0.3-0.1,0.3-0.3v-3c0-0.2-0.1-0.3-0.3-0.3H13V2.3
		C13,2.1,12.9,2,12.7,2H10C9.8,2,9.7,2.1,9.7,2.3C9.5,3.2,9.3,4,9,4.6C8.7,5.3,8.3,5.8,7.8,6.2C7.3,6.6,6.7,7,5.9,7.2
		c-0.1,0-0.2,0.2-0.2,0.3v2.7c0,0.2,0.1,0.3,0.3,0.3h1.8V17c0,0.9,0.1,1.6,0.3,2.1c0.2,0.5,0.6,1,1.1,1.4c0.5,0.4,1.1,0.8,1.8,1
		c0.7,0.2,1.5,0.4,2.4,0.4c0.8,0,1.6-0.1,2.2-0.2c0.7-0.2,1.5-0.4,2.3-0.8c0.1-0.1,0.2-0.2,0.2-0.3v-3.1
		C18.3,17.5,18.2,17.3,18.1,17.3z"/>
</g>
</svg>
